<svg width="30" height="30" viewBox="0 0 30 30" fill="none" xmlns="http://www.w3.org/2000/svg">
<path d="M22 3H8C5.239 3 3 5.239 3 8V22C3 24.761 5.239 27 8 27H22C24.762 27 27 24.761 27 22V8C27 5.239 24.762 3 22 3ZM11 22H8V11H11V22ZM9.5 9.732C8.534 9.732 7.75 8.942 7.75 7.968C7.75 6.994 8.534 6.204 9.5 6.204C10.466 6.204 11.25 6.994 11.25 7.968C11.25 8.942 10.467 9.732 9.5 9.732ZM23 22H20V16.396C20 13.028 16 13.283 16 16.396V22H13V11H16V12.765C17.396 10.179 23 9.988 23 15.241V22Z" fill="black"/>
</svg>
