<svg width="600" height="154" viewBox="0 0 600 154" fill="none" xmlns="http://www.w3.org/2000/svg">
<g clip-path="url(#clip0)">
<path d="M497.757 88.5991C496.785 88.9853 495.834 88.9781 495.819 87.4622C496.713 78.731 483.513 73.4679 470.698 73.3249C457.305 73.1676 449.689 83.7509 449.689 83.7509C449.689 83.7509 441.43 92.904 450.769 100.849C453.694 103.337 460.608 107.063 465.142 110.717C465.142 110.717 473.008 115.937 464.534 121.858C458.334 125.512 450.776 123.824 449.074 121.793C447.808 120.285 449.174 117.131 450.204 114.206C450.734 112.841 450.86 111.351 450.569 109.916C449.196 104.96 442.746 105.11 442.746 105.11C442.746 105.11 437.94 104.667 427.357 111.06C426.013 111.854 424.847 112.533 424.103 112.891C423.967 112.976 420.692 114.879 418.111 114.879C417.52 114.942 416.924 114.804 416.421 114.486C415.919 114.167 415.539 113.688 415.344 113.127C414.743 111.418 417.932 104.209 420.714 98.4602C424.039 91.5882 428.136 84.0154 430.532 79.868C433.764 74.3189 436.81 69.0773 437.461 66.2098C438.112 63.3423 436.324 58.4368 432.963 54.1749C431.542 52.4753 429.922 50.9531 428.136 49.6413C425.369 47.5747 420.986 45.1076 415.808 45.1076C412.233 45.162 408.753 46.2634 405.797 48.2755C400.899 51.4862 394.642 57.922 386.711 66.0239C378.76 74.8281 370.296 83.1543 361.362 90.9589L356.549 95.1064C350.743 100.026 344.285 105.118 337.328 110.123C326.508 117.496 315.11 123.71 307.53 123.71C307.035 123.71 306.541 123.682 306.05 123.624C305.296 123.586 304.565 123.355 303.926 122.953C303.288 122.551 302.763 121.992 302.403 121.329C298.942 114.5 310.269 94.4414 321.267 75.0268C328.582 62.0981 335.49 49.8844 336.92 43.2412C338.393 36.4265 334.06 25.2783 326.194 15.5031C318.213 5.66348 308.867 0 300.565 0C293.078 0 286.75 4.47644 281.672 13.272C281.408 13.6796 255.379 54.5182 242.979 91.7241C242.937 91.8559 242.858 91.9726 242.75 92.0602C231.481 101.592 203.707 123.753 189.326 123.753C188.829 123.754 188.333 123.725 187.839 123.667C187.085 123.629 186.354 123.398 185.716 122.996C185.077 122.594 184.552 122.034 184.192 121.372C180.731 114.542 192.058 94.4771 203.056 75.0769C210.371 62.1481 217.279 49.9344 218.709 43.2841C220.182 36.4694 215.849 25.3212 207.983 15.546C199.995 5.66348 190.656 0 182.347 0C174.853 0 168.489 4.47644 163.447 13.272C163.183 13.6796 137.132 54.5968 124.754 91.7241C124.712 91.8559 124.632 91.9726 124.525 92.0602C113.255 101.592 85.4815 123.753 71.1011 123.753C70.6064 123.754 70.1121 123.726 69.6209 123.667C68.8662 123.629 68.1339 123.398 67.4941 122.996C66.8542 122.595 66.3283 122.035 65.9668 121.372C62.5058 114.542 73.8327 94.4843 84.8308 75.0769C92.1461 62.1481 99.0538 49.9273 100.484 43.2841C101.957 36.4694 97.6236 25.3212 89.7577 15.546C81.7845 5.66348 72.4455 0 64.1505 0C56.6564 0 50.2921 4.47644 45.2508 13.272C45.072 13.5437 27.4952 41.1603 14.5021 71.151C6.82203 88.8852 2.14537 104.102 0.579331 116.366C-1.3657 131.705 1.59475 142.452 9.38919 148.323C14.1088 151.899 19.8509 153.679 26.4726 153.679C51.1574 153.679 83.8225 129.216 107.671 111.36L107.778 111.282C112.269 107.914 116.516 104.731 120.313 101.986C120.44 101.894 120.593 101.846 120.75 101.85C120.865 101.844 120.979 101.867 121.084 101.915C121.188 101.964 121.279 102.037 121.35 102.128C121.42 102.219 121.467 102.326 121.487 102.44C121.507 102.553 121.499 102.669 121.465 102.779C115.594 125.49 117.653 140.808 127.593 148.287C132.312 151.863 138.055 153.643 144.676 153.643C169.361 153.643 202.019 129.18 225.874 111.325L225.939 111.267C230.451 107.892 234.713 104.703 238.517 101.971C238.644 101.879 238.797 101.832 238.953 101.835C239.068 101.83 239.183 101.853 239.287 101.901C239.392 101.949 239.483 102.022 239.553 102.114C239.623 102.205 239.671 102.312 239.691 102.425C239.711 102.539 239.703 102.655 239.668 102.765C233.797 125.476 235.857 140.793 245.797 148.273C250.509 151.848 256.258 153.622 262.88 153.629C286.986 154.709 330.656 123.495 359.467 98.31C360.801 97.1839 362.514 96.6086 364.258 96.7011L388.356 96.744C388.356 96.744 390.752 96.8298 390.087 99.1538C388.842 103.516 387.555 107.256 387.098 110.595C386.182 117.21 387.405 121.872 390.737 124.446C392.858 126.038 395.445 126.882 398.096 126.849H398.303C407.871 126.849 420.249 118.511 430.131 111.36C430.248 111.281 430.388 111.242 430.528 111.25C430.669 111.258 430.804 111.312 430.911 111.403C431.006 111.493 431.071 111.61 431.097 111.738C431.122 111.866 431.107 111.999 431.054 112.118C430.954 112.34 430.868 112.569 430.789 112.79C430.789 112.79 427.471 121.901 440.507 125.29C453.543 128.68 471.606 128.572 481.661 114.407C486.387 106.197 481.46 101.885 481.46 101.885C478.171 98.5031 465.671 90.7015 462.06 87.4121C459.15 84.7591 457.963 81.6485 462.654 78.2233C462.654 78.2233 471.871 71.7875 480.023 81.7486C480.709 82.7796 481.111 83.9735 481.189 85.2096C481.353 87.8412 480.531 90.2152 484.163 92.6823C485.111 93.3006 486.19 93.6902 487.314 93.8205C488.439 93.9508 489.578 93.8182 490.642 93.4331C492.95 92.8996 495.135 91.9286 497.078 90.5728C497.178 90.5102 497.296 90.4806 497.414 90.4883C497.532 90.496 497.644 90.5406 497.736 90.6157C497.815 90.6933 497.867 90.7956 497.881 90.9059C497.895 91.0162 497.872 91.1282 497.814 91.2235C496.727 93.3688 495.612 95.7142 494.532 98.2028C491.851 104.395 490.242 109.701 489.67 113.985C488.954 119.341 490.027 123.088 492.744 125.14C494.472 126.404 496.569 127.06 498.708 127.006C505.816 127.006 514.819 121.193 522.428 115.658C522.579 115.561 522.755 115.51 522.935 115.51C523.115 115.51 523.291 115.561 523.443 115.658C523.57 115.747 523.672 115.866 523.739 116.005C523.807 116.144 523.838 116.298 523.829 116.452C523.579 123.61 527.734 125.14 527.734 125.14C529.786 126.423 532.172 127.072 534.591 127.006C540.012 127.006 546.383 124.454 552.619 121.114C552.729 121.05 552.852 121.011 552.979 121.001C553.106 120.99 553.234 121.007 553.354 121.052C553.473 121.096 553.582 121.166 553.671 121.257C553.76 121.349 553.828 121.458 553.87 121.579C554.356 122.997 555.249 124.241 556.437 125.154C558.164 126.418 560.261 127.074 562.401 127.021C570.982 127.021 582.423 118.44 590.761 112.24C594.802 109.215 597.991 106.827 599.857 106.14C599.889 106.129 599.918 106.111 599.943 106.087C599.968 106.064 599.987 106.036 600 106.004C600.014 105.972 600.021 105.936 600.021 105.901C600.021 105.865 600.014 105.83 600 105.797L599.156 103.773C599.142 103.735 599.118 103.701 599.087 103.675C599.055 103.648 599.018 103.63 598.978 103.623H598.92C598.857 103.621 598.795 103.644 598.749 103.687C597.261 105.003 584.082 116.559 578.011 116.559C577.84 116.57 577.668 116.57 577.496 116.559C577.232 116.548 576.975 116.468 576.751 116.327C576.526 116.187 576.342 115.991 576.216 115.758C575.008 113.377 578.977 106.369 582.81 99.5829C585.362 95.0707 587.779 90.8016 588.28 88.4847C588.78 86.1679 587.286 82.2063 584.526 78.7953C581.765 75.3844 578.476 73.3607 575.58 73.3607C572.963 73.3607 570.739 74.9267 568.98 77.9944C568.98 78.0373 568.15 79.2959 566.92 81.3839C566.796 81.584 566.598 81.727 566.369 81.7819C566.14 81.8368 565.899 81.7991 565.698 81.6771C556.623 75.842 536.036 84.3944 527.984 101.914C526.773 104.492 525.764 107.16 524.966 109.894C524.522 111.44 523.497 112.755 522.106 113.563C519.181 115.272 516.385 116.602 514.333 116.602C514.154 116.602 513.982 116.602 513.818 116.602C513.553 116.589 513.296 116.508 513.072 116.366C512.847 116.225 512.664 116.028 512.538 115.794C511.523 113.792 512.946 110.474 515.699 105.447C515.699 105.447 518.051 102.05 517.894 98.9464C517.501 93.0112 512.774 87.7768 508.069 85.4671C507.043 84.9518 505.901 84.7124 504.755 84.7726C503.609 84.8328 502.499 85.1904 501.533 85.8103C499.538 86.9688 499.309 87.9913 497.757 88.5991ZM368.269 91.9601C368.127 91.6795 368.075 91.3615 368.121 91.0501C368.167 90.7388 368.309 90.4495 368.527 90.2224C370.119 88.7255 371.637 87.281 373.082 85.889C379.339 79.8894 384.888 74.1902 389.929 69.0201C396.959 61.812 402.508 56.1485 407.091 52.5731C407.826 51.9467 408.745 51.5776 409.709 51.5219C410.183 51.5201 410.651 51.6382 411.067 51.8652C411.754 52.1877 412.284 52.7696 412.541 53.483C412.799 54.1964 412.763 54.9829 412.44 55.6694C411.375 57.9577 408.915 62.3126 406.069 67.3539C401.778 74.9696 396.415 84.4445 393.433 91.1162C393.223 91.5472 392.9 91.913 392.498 92.1749C392.096 92.4369 391.631 92.585 391.152 92.6036H369.521C369.273 92.62 369.026 92.5688 368.806 92.4554C368.585 92.342 368.4 92.1708 368.269 91.9601ZM552.225 115.751C550.468 116.791 548.497 117.417 546.462 117.582C535.378 117.725 542.8 102.422 542.8 102.422C547.649 91.5024 555.343 86.9616 561.829 88.0771C561.966 88.1067 562.095 88.1671 562.205 88.2539C562.315 88.3406 562.404 88.4514 562.465 88.5777C562.526 88.6986 562.558 88.832 562.558 88.9674C562.558 89.1028 562.526 89.2363 562.465 89.3571C559.726 94.4999 557.386 99.8454 555.465 105.346L554.306 109.222C553.882 110.837 553.565 112.478 553.355 114.135C553.315 114.479 553.188 114.808 552.987 115.091C552.786 115.373 552.516 115.6 552.204 115.751H552.225ZM522.413 71.4156C526.94 75.3844 528.585 81.2767 526.096 84.5804C523.608 87.8841 517.93 87.3406 513.403 83.3719C508.877 79.4031 507.232 73.5108 509.721 70.2071C512.209 66.9034 517.873 67.4398 522.392 71.4085L522.413 71.4156Z" fill="#231916"/>
</g>
<defs>
<clipPath id="clip0">
<rect width="600" height="153.701" fill="white"/>
</clipPath>
</defs>
</svg>
